<?xml version="1.0" encoding="UTF-8"?><!DOCTYPE svg PUBLIC "-//W3C//DTD SVG 1.1//EN" "http://www.w3.org/Graphics/SVG/1.1/DTD/svg11.dtd"><svg xmlns="http://www.w3.org/2000/svg"><symbol id="clear-24px" viewBox="0 0 24 24"><path fill="none" d="M0 0h24v24H0V0z"/><path d="M18.3 5.71c-.39-.39-1.02-.39-1.41 0L12 10.59 7.11 5.7c-.39-.39-1.02-.39-1.41 0-.39.39-.39 1.02 0 1.41L10.59 12 5.7 16.89c-.39.39-.39 1.02 0 1.41.39.39 1.02.39 1.41 0L12 13.41l4.89 4.89c.39.39 1.02.39 1.41 0 .39-.39.39-1.02 0-1.41L13.41 12l4.89-4.89c.38-.38.38-1.02 0-1.4z"/></symbol><symbol id="refresh-24px" viewBox="0 0 24 24"><path fill="none" d="M0 0h24v24H0V0z"/><path d="M17.65 6.35c-1.63-1.63-3.94-2.57-6.48-2.31-3.67.37-6.69 3.35-7.1 7.02C3.52 15.91 7.27 20 12 20c3.19 0 5.93-1.87 7.21-4.56.32-.67-.16-1.44-.9-1.44-.37 0-.72.2-.88.53-1.13 2.43-3.84 3.97-6.8 3.31-2.22-.49-4.01-2.3-4.48-4.52C5.31 9.44 8.26 6 12 6c1.66 0 3.14.69 4.22 1.78l-1.51 1.51c-.63.63-.19 1.71.7 1.71H19c.55 0 1-.45 1-1V6.41c0-.89-1.08-1.34-1.71-.71l-.64.65z"/></symbol></svg>